<svg width="20" height="20" viewBox="0 0 20 20" fill="none" xmlns="http://www.w3.org/2000/svg">
<path d="M16.6489 9.70156V14.9892C16.6489 15.6946 16.3687 16.371 15.8699 16.8698C15.3711 17.3686 14.6947 17.6488 13.9893 17.6488H6.01045C5.30508 17.6488 4.62859 17.3686 4.12982 16.8698C3.63104 16.371 3.35083 15.6946 3.35083 14.9892V9.70156L8.00516 3.68584H11.9946L16.6489 9.70156Z" fill="#9282FA" fill-opacity="0.4"/>
<path d="M19.2843 10.0855L17.9196 2.77159C17.8863 2.59331 17.8168 2.42374 17.7155 2.2733C17.6142 2.12286 17.4832 1.99472 17.3305 1.89679C17.1779 1.79886 17.0068 1.73319 16.8278 1.70382C16.6488 1.67446 16.4657 1.68201 16.2898 1.72603L16.264 1.73351L11.8989 3.02093H8.10066L3.73556 1.73767L3.70979 1.73019C3.53384 1.68617 3.35075 1.67861 3.17177 1.70798C2.99279 1.73735 2.82171 1.80302 2.66905 1.90095C2.51639 1.99888 2.38538 2.12701 2.28407 2.27745C2.18275 2.42789 2.11329 2.59746 2.07995 2.77575L0.715234 10.0855C0.656876 10.3783 0.700198 10.6822 0.838022 10.947C0.975853 11.2117 1.19995 11.4216 1.47322 11.5417C1.64823 11.622 1.83838 11.6639 2.03091 11.6647C2.26136 11.6646 2.48755 11.6026 2.68584 11.4852V14.9892C2.68584 15.871 3.03611 16.7165 3.65957 17.34C4.28304 17.9635 5.12864 18.3137 6.01036 18.3137H13.9892C14.871 18.3137 15.7166 17.9635 16.34 17.34C16.9635 16.7165 17.3137 15.871 17.3137 14.9892V11.486C17.5118 11.6032 17.7377 11.6652 17.9678 11.6655C18.1606 11.6649 18.351 11.6233 18.5264 11.5433C18.8 11.4232 19.0243 11.2131 19.1622 10.9479C19.3 10.6828 19.3431 10.3785 19.2843 10.0855ZM2.02094 10.3349L3.38649 3.02093L6.88305 4.04904L2.02094 10.3349ZM13.9892 16.9839H10.6647V15.9292L11.8 14.7947C11.9248 14.67 11.9948 14.5008 11.9948 14.3243C11.9948 14.1478 11.9248 13.9786 11.8 13.8539C11.6753 13.7291 11.5061 13.6591 11.3296 13.6591C11.1531 13.6591 10.9839 13.7291 10.8592 13.8539L9.99979 14.7141L9.14041 13.8539C9.01565 13.7291 8.84643 13.6591 8.66999 13.6591C8.49354 13.6591 8.32432 13.7291 8.19956 13.8539C8.07481 13.9786 8.00467 14.1479 8.00467 14.3243C8.00467 14.5007 8.07481 14.67 8.19956 14.7947L9.33489 15.9292V16.9839H6.01036C5.48133 16.9839 4.97397 16.7737 4.59989 16.3997C4.22581 16.0256 4.01565 15.5182 4.01565 14.9892V9.92846L8.33172 4.35074H11.6679L15.9839 9.92846V14.9892C15.9839 15.5182 15.7737 16.0256 15.3996 16.3997C15.0256 16.7737 14.5182 16.9839 13.9892 16.9839ZM17.9786 10.3349L13.1165 4.04904L16.6131 3.02093L17.9786 10.3349ZM8.00508 11.3322C8.00508 11.5295 7.94657 11.7223 7.83703 11.8863C7.7274 12.0503 7.57163 12.1782 7.38939 12.2537C7.20715 12.3292 7.00661 12.3489 6.81314 12.3104C6.61968 12.2719 6.44197 12.1769 6.30248 12.0374C6.163 11.898 6.06801 11.7203 6.02953 11.5268C5.99104 11.3333 6.01079 11.1328 6.08628 10.9506C6.16177 10.7683 6.2896 10.6126 6.45362 10.5029C6.61764 10.3934 6.81046 10.3349 7.00772 10.3349C7.27223 10.3349 7.52592 10.4399 7.71294 10.627C7.90002 10.814 8.00508 11.0677 8.00508 11.3322ZM13.9892 11.3322C13.9892 11.5295 13.9307 11.7223 13.8212 11.8863C13.7115 12.0503 13.5558 12.1782 13.3735 12.2537C13.1913 12.3292 12.9908 12.3489 12.7973 12.3104C12.6038 12.2719 12.4261 12.1769 12.2867 12.0374C12.1471 11.898 12.0522 11.7203 12.0136 11.5268C11.9751 11.3333 11.9949 11.1328 12.0704 10.9506C12.1459 10.7683 12.2738 10.6126 12.4378 10.5029C12.6017 10.3934 12.7946 10.3349 12.9919 10.3349C13.2564 10.3349 13.5101 10.4399 13.6971 10.627C13.8842 10.814 13.9892 11.0677 13.9892 11.3322Z" fill="#9282FA"/>
</svg>
