<svg fill="none" height="20" viewBox="0 0 20 20" width="20" xmlns="http://www.w3.org/2000/svg"><g fill="#9282FA"><path d="m10 2c.1074 0 .2139.00424.3192.01255-1.40348.9966-2.3192 2.63509-2.3192 4.48745 0 1.31685.46279 2.52561 1.2346 3.4725l-.7346.7346v1.6929c0 .3314-.26863.6-.6.6h-1.9v1.4c0 .3314-.26863.6-.6.6h-2.8c-.33137 0-.6-.2686-.6-.6v-2.8586c0-.1591.06321-.3117.17574-.4242l3.98645-3.98649c-.10563-.359-.16219-.7386-.16219-1.13071 0-2.20914 1.79086-4 4-4z"/><path d="m9 6.5c0-2.48528 2.0147-4.5 4.5-4.5s4.5 2.01472 4.5 4.5c0 1.56086-.7949 2.93554-2 3.7422v2.0507l.7828.7828c.2344.2343.2344.6142 0 .8486l-1.0757 1.0757 1.0675 1.0674c.2528.2529.2297.6694-.0495.8928l-2.3503 1.8803c-.2191.1753-.5305.1753-.7496 0l-2.4-1.92c-.1423-.1139-.2252-.2863-.2252-.4686v-6.2097c-1.2051-.80666-2-2.18134-2-3.7422zm5.25-1c0-.41421-.3358-.75-.75-.75s-.75.33579-.75.75.3358.75.75.75.75-.33579.75-.75z"/></g></svg>
